HIERARCHY
ROOT Hips
{
  OFFSET 0.000000 95.000000 0.000000
  CHANNELS 6 Xposition Yposition Zposition Zrotation Xrotation Yrotation
  JOINT Spine
  {
    OFFSET 0.000000 10.000000 0.000000
    CHANNELS 3 Zrotation Xrotation Yrotation
    JOINT Spine1
    {
      OFFSET 0.000000 12.000000 0.000000
      CHANNELS 3 Zrotation Xrotation Yrotation
      JOINT Spine2
      {
        OFFSET 0.000000 12.000000 0.000000
        CHANNELS 3 Zrotation Xrotation Yrotation
        JOINT Neck
        {
          OFFSET 0.000000 10.000000 0.000000
          CHANNELS 3 Zrotation Xrotation Yrotation
          JOINT Head
          {
            OFFSET 0.000000 8.000000 0.000000
            CHANNELS 3 Zrotation Xrotation Yrotation
            End Site
            {
              OFFSET 0.000000 10.000000 0.000000
            }
          }
        }
        JOINT LeftShoulder
        {
          OFFSET 6.000000 8.000000 0.000000
          CHANNELS 3 Zrotation Xrotation Yrotation
          JOINT LeftArm
          {
            OFFSET 12.000000 0.000000 0.000000
            CHANNELS 3 Zrotation Xrotation Yrotation
            JOINT LeftForeArm
            {
              OFFSET 24.000000 0.000000 0.000000
              CHANNELS 3 Zrotation Xrotation Yrotation
              JOINT LeftHand
              {
                OFFSET 22.000000 0.000000 0.000000
                CHANNELS 3 Zrotation Xrotation Yrotation
                JOINT LeftHandThumb1
                {
                  OFFSET 1.800000 -1.400000 0.500000
                  CHANNELS 3 Zrotation Xrotation Yrotation
                  JOINT LeftHandThumb2
                  {
                    OFFSET 2.400000 0.000000 0.000000
                    CHANNELS 3 Zrotation Xrotation Yrotation
                    JOINT LeftHandThumb3
                    {
                      OFFSET 1.900000 0.000000 0.000000
                      CHANNELS 3 Zrotation Xrotation Yrotation
                      End Site
                      {
                        OFFSET 1.600000 0.000000 0.000000
                      }
                    }
                  }
                }
                JOINT LeftHandIndex1
                {
                  OFFSET 6.600000 1.200000 0.300000
                  CHANNELS 3 Zrotation Xrotation Yrotation
                  JOINT LeftHandIndex2
                  {
                    OFFSET 2.000000 0.000000 0.000000
                    CHANNELS 3 Zrotation Xrotation Yrotation
                    JOINT LeftHandIndex3
                    {
                      OFFSET 1.200000 0.000000 0.000000
                      CHANNELS 3 Zrotation Xrotation Yrotation
                      End Site
                      {
                        OFFSET 1.000000 0.000000 0.000000
                      }
                    }
                  }
                }
                JOINT LeftHandMiddle1
                {
                  OFFSET 7.200000 0.000000 0.300000
                  CHANNELS 3 Zrotation Xrotation Yrotation
                  JOINT LeftHandMiddle2
                  {
                    OFFSET 3.000000 0.000000 0.000000
                    CHANNELS 3 Zrotation Xrotation Yrotation
                    JOINT LeftHandMiddle3
                    {
                      OFFSET 2.000000 0.000000 0.000000
                      CHANNELS 3 Zrotation Xrotation Yrotation
                      End Site
                      {
                        OFFSET 1.600000 0.000000 0.000000
                      }
                    }
                  }
                }
                JOINT LeftHandRing1
                {
                  OFFSET 7.100000 -1.000000 0.400000
                  CHANNELS 3 Zrotation Xrotation Yrotation
                  JOINT LeftHandRing2
                  {
                    OFFSET 2.600000 0.000000 0.000000
                    CHANNELS 3 Zrotation Xrotation Yrotation
                    JOINT LeftHandRing3
                    {
                      OFFSET 1.600000 0.000000 0.000000
                      CHANNELS 3 Zrotation Xrotation Yrotation
                      End Site
                      {
                        OFFSET 1.300000 0.000000 0.000000
                      }
                    }
                  }
                }
                JOINT LeftHandPinky1
                {
                  OFFSET 6.500000 -2.000000 0.500000
                  CHANNELS 3 Zrotation Xrotation Yrotation
                  JOINT LeftHandPinky2
                  {
                    OFFSET 1.900000 0.000000 0.000000
                    CHANNELS 3 Zrotation Xrotation Yrotation
                    JOINT LeftHandPinky3
                    {
                      OFFSET 1.400000 0.000000 0.000000
                      CHANNELS 3 Zrotation Xrotation Yrotation
                      End Site
                      {
                        OFFSET 1.300000 0.000000 0.000000
                      }
                    }
                  }
                }
              }
            }
          }
        }
        JOINT RightShoulder
        {
          OFFSET -6.000000 8.000000 0.000000
          CHANNELS 3 Zrotation Xrotation Yrotation
          JOINT RightArm
          {
            OFFSET -12.000000 0.000000 0.000000
            CHANNELS 3 Zrotation Xrotation Yrotation
            JOINT RightForeArm
            {
              OFFSET -24.000000 0.000000 0.000000
              CHANNELS 3 Zrotation Xrotation Yrotation
              JOINT RightHand
              {
                OFFSET -22.000000 0.000000 0.000000
                CHANNELS 3 Zrotation Xrotation Yrotation
                JOINT RightHandThumb1
                {
                  OFFSET -1.800000 -1.400000 0.500000
                  CHANNELS 3 Zrotation Xrotation Yrotation
                  JOINT RightHandThumb2
                  {
                    OFFSET -2.400000 0.000000 0.000000
                    CHANNELS 3 Zrotation Xrotation Yrotation
                    JOINT RightHandThumb3
                    {
                      OFFSET -1.900000 0.000000 0.000000
                      CHANNELS 3 Zrotation Xrotation Yrotation
                      End Site
                      {
                        OFFSET -1.600000 0.000000 0.000000
                      }
                    }
                  }
                }
                JOINT RightHandIndex1
                {
                  OFFSET -6.600000 1.200000 0.300000
                  CHANNELS 3 Zrotation Xrotation Yrotation
                  JOINT RightHandIndex2
                  {
                    OFFSET -2.000000 0.000000 0.000000
                    CHANNELS 3 Zrotation Xrotation Yrotation
                    JOINT RightHandIndex3
                    {
                      OFFSET -1.200000 0.000000 0.000000
                      CHANNELS 3 Zrotation Xrotation Yrotation
                      End Site
                      {
                        OFFSET -1.000000 0.000000 0.000000
                      }
                    }
                  }
                }
                JOINT RightHandMiddle1
                {
                  OFFSET -7.200000 0.000000 0.300000
                  CHANNELS 3 Zrotation Xrotation Yrotation
                  JOINT RightHandMiddle2
                  {
                    OFFSET -3.000000 0.000000 0.000000
                    CHANNELS 3 Zrotation Xrotation Yrotation
                    JOINT RightHandMiddle3
                    {
                      OFFSET -2.000000 0.000000 0.000000
                      CHANNELS 3 Zrotation Xrotation Yrotation
                      End Site
                      {
                        OFFSET -1.600000 0.000000 0.000000
                      }
                    }
                  }
                }
                JOINT RightHandRing1
                {
                  OFFSET -7.100000 -1.000000 0.400000
                  CHANNELS 3 Zrotation Xrotation Yrotation
                  JOINT RightHandRing2
                  {
                    OFFSET -2.600000 0.000000 0.000000
                    CHANNELS 3 Zrotation Xrotation Yrotation
                    JOINT RightHandRing3
                    {
                      OFFSET -1.600000 0.000000 0.000000
                      CHANNELS 3 Zrotation Xrotation Yrotation
                      End Site
                      {
                        OFFSET -1.300000 0.000000 0.000000
                      }
                    }
                  }
                }
                JOINT RightHandPinky1
                {
                  OFFSET -6.500000 -2.000000 0.500000
                  CHANNELS 3 Zrotation Xrotation Yrotation
                  JOINT RightHandPinky2
                  {
                    OFFSET -1.900000 0.000000 0.000000
                    CHANNELS 3 Zrotation Xrotation Yrotation
                    JOINT RightHandPinky3
                    {
                      OFFSET -1.400000 0.000000 0.000000
                      CHANNELS 3 Zrotation Xrotation Yrotation
                      End Site
                      {
                        OFFSET -1.300000 0.000000 0.000000
                      }
                    }
                  }
                }
              }
            }
          }
        }
      }
    }
  }
  JOINT LeftUpLeg
  {
    OFFSET 10.000000 -5.000000 0.000000
    CHANNELS 3 Zrotation Xrotation Yrotation
    JOINT LeftLeg
    {
      OFFSET 0.000000 -42.000000 0.000000
      CHANNELS 3 Zrotation Xrotation Yrotation
      JOINT LeftFoot
      {
        OFFSET 0.000000 -42.000000 4.000000
        CHANNELS 3 Zrotation Xrotation Yrotation
        End Site
        {
          OFFSET 0.000000 0.000000 12.000000
        }
      }
    }
  }
  JOINT RightUpLeg
  {
    OFFSET -10.000000 -5.000000 0.000000
    CHANNELS 3 Zrotation Xrotation Yrotation
    JOINT RightLeg
    {
      OFFSET 0.000000 -42.000000 0.000000
      CHANNELS 3 Zrotation Xrotation Yrotation
      JOINT RightFoot
      {
        OFFSET 0.000000 -42.000000 4.000000
        CHANNELS 3 Zrotation Xrotation Yrotation
        End Site
        {
          OFFSET 0.000000 0.000000 12.000000
        }
      }
    }
  }
}
MOTION
Frames: 10
Frame Time: 0.033333
0.0000 95.0000 0.0000 0.0000 0.0000 0.0000 0.0000 0.0000 0.0000 0.0000 0.0000 0.0000 0.0000 0.0000 0.0000 0.0000 0.0000 0.0000 0.0000 0.0000 0.0000 0.0000 0.0000 0.0000 -77.8084 4.9299 6.1068 -9.5293 -4.8158 8.1745 -166.0443 19.6006 170.2149 60.8542 -13.0975 -2.9560 13.1168 0.0000 0.0000 0.9276 0.0000 0.0000 -4.7288 0.1931 0.1459 9.0450 0.0000 0.0000 3.5640 0.0000 0.0000 4.9343 -0.1413 -1.4924 14.7050 0.0000 0.0000 4.9521 0.0000 0.0000 12.4844 -0.7420 -1.5209 14.3137 0.0000 0.0000 7.6907 0.0000 0.0000 19.7637 -1.4217 0.2836 11.1387 0.0000 0.0000 6.9972 0.0000 0.0000 0.0000 0.0000 0.0000 88.1847 -0.5114 0.5278 -4.0407 6.8463 6.5465 160.4315 19.7817 170.3306 -68.1955 -13.7799 -6.1183 11.8965 0.0000 0.0000 1.1779 0.0000 0.0000 -1.3687 -0.4962 -2.2318 11.4018 0.0000 0.0000 2.2548 0.0000 0.0000 -11.2127 -0.1814 2.9238 11.0844 0.0000 0.0000 6.3291 0.0000 0.0000 -17.0595 -0.9421 0.6551 16.9571 0.0000 0.0000 6.3079 0.0000 0.0000 -26.2754 -1.8684 -0.7475 11.8593 0.0000 0.0000 5.1564 0.0000 0.0000 0.0000 0.0000 0.0000 0.0000 0.0000 0.0000 0.0000 0.0000 0.0000 0.0000 0.0000 0.0000 0.0000 0.0000 0.0000 0.0000 0.0000 0.0000
0.0000 95.0000 0.0000 0.0000 0.0000 0.0000 0.0000 0.0000 0.0000 0.0000 0.0000 0.0000 0.0000 0.0000 0.0000 0.0000 0.0000 0.0000 0.0000 0.0000 0.0000 0.0000 0.0000 0.0000 -77.7879 4.9396 6.1210 -9.5402 -4.8795 8.2748 -166.0103 19.5094 170.1299 60.8542 -13.0975 -2.9560 13.1168 0.0000 0.0000 0.9276 0.0000 0.0000 -4.7288 0.1931 0.1459 9.0450 0.0000 0.0000 3.5640 0.0000 0.0000 4.9343 -0.1413 -1.4924 14.7050 0.0000 0.0000 4.9521 0.0000 0.0000 12.4844 -0.7420 -1.5209 14.3137 0.0000 0.0000 7.6907 0.0000 0.0000 19.7637 -1.4217 0.2836 11.1387 0.0000 0.0000 6.9972 0.0000 0.0000 0.0000 0.0000 0.0000 88.1380 -0.7577 0.7827 -3.9930 6.9955 6.6821 160.3486 20.1452 169.8899 -68.1955 -13.7799 -6.1183 11.8965 0.0000 0.0000 1.1779 0.0000 0.0000 -1.3687 -0.4962 -2.2318 11.4018 0.0000 0.0000 2.2548 0.0000 0.0000 -11.2127 -0.1814 2.9238 11.0844 0.0000 0.0000 6.3291 0.0000 0.0000 -17.0595 -0.9421 0.6551 16.9571 0.0000 0.0000 6.3079 0.0000 0.0000 -26.2754 -1.8684 -0.7475 11.8593 0.0000 0.0000 5.1564 0.0000 0.0000 0.0000 0.0000 0.0000 0.0000 0.0000 0.0000 0.0000 0.0000 0.0000 0.0000 0.0000 0.0000 0.0000 0.0000 0.0000 0.0000 0.0000 0.0000
0.0000 95.0000 0.0000 0.0000 0.0000 0.0000 0.0000 0.0000 0.0000 0.0000 0.0000 0.0000 0.0000 0.0000 0.0000 0.0000 0.0000 0.0000 0.0000 0.0000 0.0000 0.0000 0.0000 0.0000 -77.6772 5.0831 6.3111 -9.6687 -5.0641 8.6255 -165.9427 19.0802 169.6951 60.8542 -13.0975 -2.9560 13.1168 0.0000 0.0000 0.9276 0.0000 0.0000 -4.7288 0.1931 0.1459 9.0450 0.0000 0.0000 3.5640 0.0000 0.0000 4.9343 -0.1413 -1.4924 14.7050 0.0000 0.0000 4.9521 0.0000 0.0000 12.4844 -0.7420 -1.5209 14.3137 0.0000 0.0000 7.6907 0.0000 0.0000 19.7637 -1.4217 0.2836 11.1387 0.0000 0.0000 6.9972 0.0000 0.0000 0.0000 0.0000 0.0000 87.8856 -0.7625 0.7912 -3.7271 7.0582 6.8069 160.3335 20.2379 169.7797 -68.1955 -13.7799 -6.1183 11.8965 0.0000 0.0000 1.1779 0.0000 0.0000 -1.3687 -0.4962 -2.2318 11.4018 0.0000 0.0000 2.2548 0.0000 0.0000 -11.2127 -0.1814 2.9238 11.0844 0.0000 0.0000 6.3291 0.0000 0.0000 -17.0595 -0.9421 0.6551 16.9571 0.0000 0.0000 6.3079 0.0000 0.0000 -26.2754 -1.8684 -0.7475 11.8593 0.0000 0.0000 5.1564 0.0000 0.0000 0.0000 0.0000 0.0000 0.0000 0.0000 0.0000 0.0000 0.0000 0.0000 0.0000 0.0000 0.0000 0.0000 0.0000 0.0000 0.0000 0.0000 0.0000
0.0000 95.0000 0.0000 0.0000 0.0000 0.0000 0.0000 0.0000 0.0000 0.0000 0.0000 0.0000 0.0000 0.0000 0.0000 0.0000 0.0000 0.0000 0.0000 0.0000 0.0000 0.0000 0.0000 0.0000 -77.5862 5.1105 6.3554 -9.8976 -5.0303 8.6611 -166.0858 19.0283 169.5876 60.8542 -13.0975 -2.9560 13.1168 0.0000 0.0000 0.9276 0.0000 0.0000 -4.7288 0.1931 0.1459 9.0450 0.0000 0.0000 3.5640 0.0000 0.0000 4.9343 -0.1413 -1.4924 14.7050 0.0000 0.0000 4.9521 0.0000 0.0000 12.4844 -0.7420 -1.5209 14.3137 0.0000 0.0000 7.6907 0.0000 0.0000 19.7637 -1.4217 0.2836 11.1387 0.0000 0.0000 6.9972 0.0000 0.0000 0.0000 0.0000 0.0000 87.7930 -0.8204 0.8527 -3.5990 7.1130 6.8841 160.3404 20.3572 169.6484 -68.1955 -13.7799 -6.1183 11.8965 0.0000 0.0000 1.1779 0.0000 0.0000 -1.3687 -0.4962 -2.2318 11.4018 0.0000 0.0000 2.2548 0.0000 0.0000 -11.2127 -0.1814 2.9238 11.0844 0.0000 0.0000 6.3291 0.0000 0.0000 -17.0595 -0.9421 0.6551 16.9571 0.0000 0.0000 6.3079 0.0000 0.0000 -26.2754 -1.8684 -0.7475 11.8593 0.0000 0.0000 5.1564 0.0000 0.0000 0.0000 0.0000 0.0000 0.0000 0.0000 0.0000 0.0000 0.0000 0.0000 0.0000 0.0000 0.0000 0.0000 0.0000 0.0000 0.0000 0.0000 0.0000
0.0000 95.0000 0.0000 0.0000 0.0000 0.0000 0.0000 0.0000 0.0000 0.0000 0.0000 0.0000 0.0000 0.0000 0.0000 0.0000 0.0000 0.0000 0.0000 0.0000 0.0000 0.0000 0.0000 0.0000 -77.1505 5.4158 6.7874 -10.3794 -5.2096 9.2079 -166.0049 18.2900 168.8264 60.8542 -13.0975 -2.9560 13.1168 0.0000 0.0000 0.9276 0.0000 0.0000 -4.7288 0.1931 0.1459 9.0450 0.0000 0.0000 3.5640 0.0000 0.0000 4.9343 -0.1413 -1.4924 14.7050 0.0000 0.0000 4.9521 0.0000 0.0000 12.4844 -0.7420 -1.5209 14.3137 0.0000 0.0000 7.6907 0.0000 0.0000 19.7637 -1.4217 0.2836 11.1387 0.0000 0.0000 6.9972 0.0000 0.0000 0.0000 0.0000 0.0000 87.8590 -0.8827 0.9164 -3.7426 7.1015 6.8411 160.2562 20.3827 169.5859 -68.1955 -13.7799 -6.1183 11.8965 0.0000 0.0000 1.1779 0.0000 0.0000 -1.3687 -0.4962 -2.2318 11.4018 0.0000 0.0000 2.2548 0.0000 0.0000 -11.2127 -0.1814 2.9238 11.0844 0.0000 0.0000 6.3291 0.0000 0.0000 -17.0595 -0.9421 0.6551 16.9571 0.0000 0.0000 6.3079 0.0000 0.0000 -26.2754 -1.8684 -0.7475 11.8593 0.0000 0.0000 5.1564 0.0000 0.0000 0.0000 0.0000 0.0000 0.0000 0.0000 0.0000 0.0000 0.0000 0.0000 0.0000 0.0000 0.0000 0.0000 0.0000 0.0000 0.0000 0.0000 0.0000
0.0000 95.0000 0.0000 0.0000 0.0000 0.0000 0.0000 0.0000 0.0000 0.0000 0.0000 0.0000 0.0000 0.0000 0.0000 0.0000 0.0000 0.0000 0.0000 0.0000 0.0000 0.0000 0.0000 0.0000 -77.2437 5.2439 6.5612 -10.2699 -5.4562 9.4838 -165.9156 18.2395 168.8034 60.8542 -13.0975 -2.9560 13.1168 0.0000 0.0000 0.9276 0.0000 0.0000 -4.7288 0.1931 0.1459 9.0450 0.0000 0.0000 3.5640 0.0000 0.0000 4.9343 -0.1413 -1.4924 14.7050 0.0000 0.0000 4.9521 0.0000 0.0000 12.4844 -0.7420 -1.5209 14.3137 0.0000 0.0000 7.6907 0.0000 0.0000 19.7637 -1.4217 0.2836 11.1387 0.0000 0.0000 6.9972 0.0000 0.0000 0.0000 0.0000 0.0000 87.8905 -0.9242 0.9588 -3.8170 7.2467 6.9648 160.1615 20.5394 169.3713 -68.1955 -13.7799 -6.1183 11.8965 0.0000 0.0000 1.1779 0.0000 0.0000 -1.3687 -0.4962 -2.2318 11.4018 0.0000 0.0000 2.2548 0.0000 0.0000 -11.2127 -0.1814 2.9238 11.0844 0.0000 0.0000 6.3291 0.0000 0.0000 -17.0595 -0.9421 0.6551 16.9571 0.0000 0.0000 6.3079 0.0000 0.0000 -26.2754 -1.8684 -0.7475 11.8593 0.0000 0.0000 5.1564 0.0000 0.0000 0.0000 0.0000 0.0000 0.0000 0.0000 0.0000 0.0000 0.0000 0.0000 0.0000 0.0000 0.0000 0.0000 0.0000 0.0000 0.0000 0.0000 0.0000
0.0000 95.0000 0.0000 0.0000 0.0000 0.0000 0.0000 0.0000 0.0000 0.0000 0.0000 0.0000 0.0000 0.0000 0.0000 0.0000 0.0000 0.0000 0.0000 0.0000 0.0000 0.0000 0.0000 0.0000 -77.3457 5.4047 6.7499 -10.2280 -5.4775 9.5198 -165.9566 18.0390 168.5742 60.8542 -13.0975 -2.9560 13.1168 0.0000 0.0000 0.9276 0.0000 0.0000 -4.7288 0.1931 0.1459 9.0450 0.0000 0.0000 3.5640 0.0000 0.0000 4.9343 -0.1413 -1.4924 14.7050 0.0000 0.0000 4.9521 0.0000 0.0000 12.4844 -0.7420 -1.5209 14.3137 0.0000 0.0000 7.6907 0.0000 0.0000 19.7637 -1.4217 0.2836 11.1387 0.0000 0.0000 6.9972 0.0000 0.0000 0.0000 0.0000 0.0000 87.9591 -0.9030 0.9358 -3.7838 7.2395 6.9557 160.2752 20.5228 169.4362 -68.1955 -13.7799 -6.1183 11.8965 0.0000 0.0000 1.1779 0.0000 0.0000 -1.3687 -0.4962 -2.2318 11.4018 0.0000 0.0000 2.2548 0.0000 0.0000 -11.2127 -0.1814 2.9238 11.0844 0.0000 0.0000 6.3291 0.0000 0.0000 -17.0595 -0.9421 0.6551 16.9571 0.0000 0.0000 6.3079 0.0000 0.0000 -26.2754 -1.8684 -0.7475 11.8593 0.0000 0.0000 5.1564 0.0000 0.0000 0.0000 0.0000 0.0000 0.0000 0.0000 0.0000 0.0000 0.0000 0.0000 0.0000 0.0000 0.0000 0.0000 0.0000 0.0000 0.0000 0.0000 0.0000
0.0000 95.0000 0.0000 0.0000 0.0000 0.0000 0.0000 0.0000 0.0000 0.0000 0.0000 0.0000 0.0000 0.0000 0.0000 0.0000 0.0000 0.0000 0.0000 0.0000 0.0000 0.0000 0.0000 0.0000 -77.5361 5.5073 6.8547 -9.9442 -5.2606 9.1051 -165.9526 18.2596 168.8121 60.8542 -13.0975 -2.9560 13.1168 0.0000 0.0000 0.9276 0.0000 0.0000 -4.7288 0.1931 0.1459 9.0450 0.0000 0.0000 3.5640 0.0000 0.0000 4.9343 -0.1413 -1.4924 14.7050 0.0000 0.0000 4.9521 0.0000 0.0000 12.4844 -0.7420 -1.5209 14.3137 0.0000 0.0000 7.6907 0.0000 0.0000 19.7637 -1.4217 0.2836 11.1387 0.0000 0.0000 6.9972 0.0000 0.0000 0.0000 0.0000 0.0000 87.9288 -1.0922 1.1324 -3.6610 7.3251 7.0454 160.3111 20.7919 169.1484 -68.1955 -13.7799 -6.1183 11.8965 0.0000 0.0000 1.1779 0.0000 0.0000 -1.3687 -0.4962 -2.2318 11.4018 0.0000 0.0000 2.2548 0.0000 0.0000 -11.2127 -0.1814 2.9238 11.0844 0.0000 0.0000 6.3291 0.0000 0.0000 -17.0595 -0.9421 0.6551 16.9571 0.0000 0.0000 6.3079 0.0000 0.0000 -26.2754 -1.8684 -0.7475 11.8593 0.0000 0.0000 5.1564 0.0000 0.0000 0.0000 0.0000 0.0000 0.0000 0.0000 0.0000 0.0000 0.0000 0.0000 0.0000 0.0000 0.0000 0.0000 0.0000 0.0000 0.0000 0.0000 0.0000
0.0000 95.0000 0.0000 0.0000 0.0000 0.0000 0.0000 0.0000 0.0000 0.0000 0.0000 0.0000 0.0000 0.0000 0.0000 0.0000 0.0000 0.0000 0.0000 0.0000 0.0000 0.0000 0.0000 0.0000 -77.5268 5.5738 6.9384 -10.2543 -4.9460 8.7526 -166.3668 18.4791 168.9017 60.8542 -13.0975 -2.9560 13.1168 0.0000 0.0000 0.9276 0.0000 0.0000 -4.7288 0.1931 0.1459 9.0450 0.0000 0.0000 3.5640 0.0000 0.0000 4.9343 -0.1413 -1.4924 14.7050 0.0000 0.0000 4.9521 0.0000 0.0000 12.4844 -0.7420 -1.5209 14.3137 0.0000 0.0000 7.6907 0.0000 0.0000 19.7637 -1.4217 0.2836 11.1387 0.0000 0.0000 6.9972 0.0000 0.0000 0.0000 0.0000 0.0000 87.6268 -0.9555 0.9960 -2.6589 7.3536 7.2632 161.0355 20.8537 169.3748 -68.1955 -13.7799 -6.1183 11.8965 0.0000 0.0000 1.1779 0.0000 0.0000 -1.3687 -0.4962 -2.2318 11.4018 0.0000 0.0000 2.2548 0.0000 0.0000 -11.2127 -0.1814 2.9238 11.0844 0.0000 0.0000 6.3291 0.0000 0.0000 -17.0595 -0.9421 0.6551 16.9571 0.0000 0.0000 6.3079 0.0000 0.0000 -26.2754 -1.8684 -0.7475 11.8593 0.0000 0.0000 5.1564 0.0000 0.0000 0.0000 0.0000 0.0000 0.0000 0.0000 0.0000 0.0000 0.0000 0.0000 0.0000 0.0000 0.0000 0.0000 0.0000 0.0000 0.0000 0.0000 0.0000
0.0000 95.0000 0.0000 0.0000 0.0000 0.0000 0.0000 0.0000 0.0000 0.0000 0.0000 0.0000 0.0000 0.0000 0.0000 0.0000 0.0000 0.0000 0.0000 0.0000 0.0000 0.0000 0.0000 0.0000 -77.0037 4.0738 5.1199 -13.7102 -1.9289 4.5934 -170.4665 23.4528 172.4625 60.8542 -13.0975 -2.9560 13.1168 0.0000 0.0000 0.9276 0.0000 0.0000 -4.7288 0.1931 0.1459 9.0450 0.0000 0.0000 3.5640 0.0000 0.0000 4.9343 -0.1413 -1.4924 14.7050 0.0000 0.0000 4.9521 0.0000 0.0000 12.4844 -0.7420 -1.5209 14.3137 0.0000 0.0000 7.6907 0.0000 0.0000 19.7637 -1.4217 0.2836 11.1387 0.0000 0.0000 6.9972 0.0000 0.0000 0.0000 0.0000 0.0000 87.0859 -0.8800 0.9260 -1.1980 8.9400 9.1791 161.4026 22.4926 167.7161 -68.1955 -13.7799 -6.1183 11.8965 0.0000 0.0000 1.1779 0.0000 0.0000 -1.3687 -0.4962 -2.2318 11.4018 0.0000 0.0000 2.2548 0.0000 0.0000 -11.2127 -0.1814 2.9238 11.0844 0.0000 0.0000 6.3291 0.0000 0.0000 -17.0595 -0.9421 0.6551 16.9571 0.0000 0.0000 6.3079 0.0000 0.0000 -26.2754 -1.8684 -0.7475 11.8593 0.0000 0.0000 5.1564 0.0000 0.0000 0.0000 0.0000 0.0000 0.0000 0.0000 0.0000 0.0000 0.0000 0.0000 0.0000 0.0000 0.0000 0.0000 0.0000 0.0000 0.0000 0.0000 0.0000
